# xmcd
#
# Track frame offsets: 
#        151
#        24055
#        43771
#        76394
#        112491
#        138485
#        175083
#        203051
#        235627
#
# Disc length: 3515 seconds
#
# Revision: 1
# Processed by: cddbd v1.5.2PL0 Copyright (c) Steve Scherf et al.
# Submitted via: ExactAudioCopyFreeDBPlugin 1.0
#
DISCID=700db909
DTITLE=Michael Cain - Evidence of Thing Unseen
DYEAR=1999
DGENRE=Jazz
TTITLE0=Evidence of Thing Unseen
TTITLE1=All My Life
TTITLE2=Maria becoomes Rotwang's prisoner
TTITLE3=Home Coutinuity
TTITLE4=Kobe
TTITLE5=Maria and Rotwang struggle
TTITLE6=Maria dances her freedome
TTITLE7=Memoria
TTITLE8=Talk Speak
EXTD=YEAR: 1999
EXTT0=
EXTT1=
EXTT2=
EXTT3=
EXTT4=
EXTT5=
EXTT6=
EXTT7=
EXTT8=
PLAYORDER=
